<?xml version="1.0" standalone="no"?>
<!DOCTYPE svg PUBLIC "-//W3C//DTD SVG 20010904//EN"
 "http://www.w3.org/TR/2001/REC-SVG-20010904/DTD/svg10.dtd">
<svg version="1.0" xmlns="http://www.w3.org/2000/svg"
 width="460.000000pt" height="379.000000pt" viewBox="0 0 460.000000 379.000000"
 preserveAspectRatio="xMidYMid meet">
<metadata>
Created by potrace 1.16, written by Peter Selinger 2001-2019
</metadata>
<g transform="translate(0.000000,379.000000) scale(0.100000,-0.100000)"
fill="#000000" stroke="none">
<path d="M0 3535 c0 -140 3 -255 6 -255 3 0 14 5 25 10 23 13 24 33 4 64 -11
16 -13 36 -9 69 9 61 23 72 61 51 32 -19 63 -14 63 10 0 8 -16 28 -36 43 -20
15 -45 35 -56 44 -19 14 -20 18 -7 52 15 44 28 46 65 12 32 -29 37 -30 55 -9
12 14 9 20 -16 40 -18 15 -29 31 -27 43 3 23 -74 81 -107 81 -21 0 -21 -4 -21
-255z"/>
<path d="M315 3771 c-3 -10 -1 -31 5 -45 5 -15 7 -38 4 -50 -4 -17 1 -29 19
-42 49 -39 60 -89 27 -119 -25 -22 -26 -45 -2 -45 9 0 34 -9 55 -20 20 -11 50
-20 66 -20 21 0 30 -6 35 -22 9 -35 8 -38 -19 -48 -14 -5 -25 -14 -25 -20 0
-6 9 -6 27 1 38 14 53 28 47 44 -8 20 14 55 35 55 21 0 36 -26 21 -35 -6 -4
-10 -11 -10 -17 0 -11 47 -7 120 12 57 14 77 18 200 36 25 4 55 13 67 21 14
10 23 11 28 4 8 -14 -2 -31 -19 -31 -8 0 -19 -7 -27 -16 -8 -10 -21 -13 -37
-9 -18 4 -31 0 -49 -17 -23 -21 -25 -22 -34 -5 -14 23 -35 22 -42 -4 -3 -12
-10 -18 -16 -15 -5 4 -19 -3 -30 -15 -18 -19 -24 -21 -46 -11 -19 9 -26 8 -32
-2 -12 -21 -51 -38 -58 -26 -4 6 -12 4 -22 -5 -8 -9 -29 -19 -46 -22 -18 -4
-32 -14 -35 -25 -4 -16 -11 -19 -32 -14 -22 4 -29 1 -33 -14 -3 -14 -14 -20
-31 -20 -17 0 -26 -5 -26 -16 0 -12 -6 -15 -25 -10 -20 5 -25 3 -25 -14 0 -11
-6 -20 -12 -20 -7 0 -26 -19 -43 -42 -52 -74 -51 -193 2 -275 16 -24 17 -24
30 -7 12 16 13 16 13 1 0 -10 4 -25 9 -35 5 -9 12 -25 15 -34 3 -11 11 -15 21
-12 11 5 15 0 15 -19 0 -14 7 -27 15 -31 9 -3 15 -18 15 -35 0 -33 33 -96 55
-105 8 -3 15 -12 15 -20 0 -7 7 -16 15 -20 11 -4 14 -13 9 -31 -4 -18 -2 -27
10 -31 9 -3 16 -11 16 -16 0 -6 29 -43 65 -83 36 -40 65 -76 65 -80 0 -4 8
-14 17 -21 10 -7 15 -15 11 -19 -4 -4 -15 3 -25 15 -31 37 -50 43 -83 25 -17
-8 -43 -22 -59 -30 -16 -8 -38 -15 -49 -15 -11 0 -22 -6 -25 -12 -3 -10 -9
-10 -29 1 -20 10 -30 10 -47 2 -17 -9 -24 -8 -41 9 -28 28 -25 43 20 90 47 49
44 72 -7 68 -28 -2 -40 4 -62 29 -14 17 -36 34 -48 38 -12 3 -25 15 -28 26 -4
10 -23 31 -43 46 -20 15 -43 34 -50 42 -17 20 -16 153 2 195 8 19 16 61 18 94
l3 60 -43 34 c-55 44 -76 82 -60 108 10 16 8 23 -12 45 -13 14 -27 25 -32 25
-4 0 -8 -488 -8 -1085 0 -597 2 -1085 4 -1085 3 0 20 9 40 21 39 23 71 65 56
74 -6 3 -10 24 -10 46 0 33 3 40 18 37 10 -2 18 -14 20 -30 2 -15 13 -36 25
-45 67 -53 120 -168 134 -288 3 -22 11 -47 17 -55 16 -20 50 -103 66 -163 11
-41 11 -50 -3 -65 -15 -16 -36 -19 -104 -14 -13 1 -41 18 -63 38 -38 35 -40
39 -40 98 0 34 5 67 11 73 6 6 8 16 4 23 -6 10 -21 9 -87 -6 -18 -4 -37 -1
-53 10 -13 9 -27 16 -30 16 -3 0 -5 -164 -5 -365 l0 -365 75 0 74 0 11 41 c6
23 9 48 5 57 -3 9 -15 56 -25 106 -11 50 -22 101 -25 114 -8 34 32 30 47 -5 6
-16 17 -41 23 -58 7 -16 19 -64 26 -106 12 -73 11 -77 -9 -107 -12 -16 -22
-33 -22 -36 0 -11 86 -6 112 6 21 10 27 22 32 60 7 50 26 78 54 78 27 -1 61
-33 71 -67 8 -26 6 -37 -11 -58 l-19 -25 648 0 648 0 51 58 c28 31 59 69 68
85 15 22 26 27 58 27 l41 0 -5 -85 -4 -85 36 0 36 0 -12 72 c-22 121 -22 118
39 118 47 0 65 -7 166 -66 91 -53 127 -68 180 -76 36 -6 84 -19 105 -29 38
-18 80 -19 1083 -19 l1043 0 0 310 c0 273 -2 310 -15 310 -9 0 -27 12 -40 26
-28 30 -35 100 -13 122 9 9 9 15 0 24 -19 19 4 48 38 48 l30 0 0 80 0 80 -26
-6 c-29 -7 -44 7 -44 43 0 42 -53 71 -64 35 -8 -25 -60 -45 -96 -37 -25 5 -30
3 -30 -12 -1 -19 -61 -63 -87 -63 -12 0 -14 -6 -9 -27 9 -37 10 -48 8 -114 -3
-82 -15 -94 -101 -93 -68 0 -71 -1 -71 -23 0 -49 -63 -103 -120 -103 -11 0
-23 -13 -31 -32 -7 -18 -14 -36 -17 -40 -2 -5 3 -8 12 -8 22 0 56 -36 56 -60
0 -36 -37 -24 -62 20 -13 22 -27 40 -31 40 -5 0 -25 14 -46 30 -20 17 -75 49
-122 73 l-84 42 1 115 c2 211 4 240 14 240 6 0 10 -21 10 -47 0 -43 2 -46 15
-32 9 8 18 31 21 50 5 31 3 35 -25 47 -35 15 -42 52 -16 86 8 11 15 39 15 62
0 43 30 124 52 141 7 6 37 18 66 27 118 37 436 206 450 238 2 5 10 8 18 8 8 0
17 7 21 15 3 9 18 22 34 31 16 8 31 25 35 39 3 13 15 27 25 30 10 4 19 13 19
21 0 8 8 18 18 21 37 14 122 123 122 158 0 6 8 20 18 31 25 28 41 69 35 92 -2
11 0 23 6 26 8 5 11 148 11 471 0 449 -1 465 -19 475 -26 13 -31 13 -31 -5 0
-18 -12 -19 -29 -2 -10 10 -15 9 -24 -4 -7 -8 -20 -18 -31 -22 -14 -6 -16 -10
-7 -21 17 -20 -12 -40 -45 -32 -23 6 -25 10 -20 39 4 18 10 55 14 83 12 78 41
101 93 74 25 -14 25 1 -1 23 -15 12 -18 24 -14 47 5 20 3 30 -6 30 -15 0 -5
48 16 71 8 8 14 26 14 40 0 13 9 39 21 58 16 26 19 43 14 70 -6 31 -3 38 27
62 18 15 29 31 25 35 -4 4 -13 2 -19 -4 -23 -23 -48 -14 -48 17 0 17 5 33 11
37 7 4 9 21 5 46 -4 23 -2 47 6 61 7 12 12 34 13 50 l0 27 -122 0 c-70 0 -124
-4 -128 -10 -3 -5 -17 -10 -30 -10 -13 0 -27 5 -30 10 -4 6 -168 10 -459 10
-438 0 -454 -1 -479 -20 -14 -11 -35 -20 -46 -20 -16 0 -20 -6 -18 -22 1 -18
-4 -24 -23 -26 -14 -2 -45 -12 -68 -23 -37 -17 -42 -22 -31 -35 17 -21 -17
-46 -53 -39 -15 2 -30 0 -33 -5 -3 -6 -19 -10 -36 -10 -18 0 -33 -7 -41 -20
-15 -23 -38 -27 -38 -6 0 24 68 76 100 76 42 0 45 16 8 35 -21 10 -34 12 -36
5 -2 -5 -12 -10 -23 -10 -10 0 -19 -4 -19 -9 0 -5 -15 -25 -33 -45 -28 -29
-57 -76 -57 -91 0 -3 12 -2 27 1 16 3 41 -1 58 -10 17 -9 39 -16 50 -16 11 -1
31 -7 45 -15 14 -8 39 -15 55 -15 17 0 57 -12 90 -26 33 -14 73 -27 88 -28 16
-2 32 -7 35 -13 7 -10 130 -2 150 11 12 7 62 -42 62 -62 0 -8 6 -12 13 -9 6 2
19 1 28 -4 11 -6 21 -4 29 6 19 23 30 18 46 -20 9 -22 25 -40 42 -46 15 -6 55
-24 88 -40 34 -16 67 -29 74 -29 7 0 32 -13 57 -30 24 -16 54 -30 67 -30 28 0
53 -25 36 -35 -16 -10 -113 15 -123 31 -4 8 -13 14 -19 14 -6 0 -36 12 -67 26
-31 14 -65 30 -76 34 -11 4 -42 17 -70 29 -27 12 -57 23 -65 25 -8 2 -37 13
-65 25 -27 13 -77 31 -110 42 -33 11 -68 24 -77 30 -10 5 -26 9 -37 9 -10 0
-24 6 -30 14 -7 8 -28 16 -49 19 -20 3 -68 13 -107 22 -38 9 -88 19 -110 22
-22 3 -44 9 -49 14 -6 5 -24 9 -42 9 -17 0 -37 6 -43 14 -12 15 -70 13 -124
-4 -22 -7 -32 -5 -47 10 -11 11 -26 16 -39 13 -12 -3 -28 0 -36 7 -8 7 -24 10
-35 7 -11 -3 -37 -1 -57 5 -24 6 -43 6 -57 0 -29 -14 -134 -23 -141 -11 -8 12
-62 12 -70 -1 -8 -13 -55 -13 -55 1 0 7 -16 8 -45 3 -38 -5 -45 -4 -45 10 0
20 -19 21 -26 1 -4 -10 -11 -12 -23 -6 -10 6 -23 6 -32 0 -25 -15 -42 -11 -36
11 6 25 -6 25 -41 1 -33 -23 -94 -39 -74 -20 6 7 12 17 12 21 0 13 -32 9 -49
-6 -9 -8 -29 -18 -45 -22 -24 -6 -28 -4 -23 9 10 27 -9 29 -57 5 -40 -19 -48
-20 -71 -8 -21 11 -27 11 -43 -3 -15 -14 -23 -15 -50 -5 -27 11 -37 10 -62 -5
-27 -16 -32 -17 -52 -3 -19 14 -23 13 -46 -5 -23 -17 -27 -18 -42 -4 -22 20
-33 19 -55 -5 -19 -21 -55 -27 -55 -10 0 16 -17 12 -56 -15 -20 -14 -44 -25
-53 -24 -10 0 -12 2 -3 6 15 6 16 33 0 33 -44 0 87 37 137 39 81 2 122 8 142
19 25 14 57 77 72 140 5 23 18 57 30 77 l20 35 -609 0 c-586 0 -609 -1 -615
-19z m3855 -51 c0 -5 -4 -10 -10 -10 -5 0 -10 5 -10 10 0 6 5 10 10 10 6 0 10
-4 10 -10z m96 -18 c7 -4 12 -36 13 -75 0 -38 4 -73 7 -78 3 -6 3 -26 0 -45
-8 -41 -32 -45 -76 -12 -16 12 -33 18 -37 14 -5 -4 -1 -13 9 -20 27 -20 26
-48 -4 -65 -41 -24 -64 -6 -61 48 2 43 -3 45 -39 14 -21 -19 -58 -8 -58 17 0
20 85 150 106 163 7 4 19 14 27 21 12 13 39 20 87 24 8 1 20 -2 26 -6z m-366
-123 c0 -5 -4 -9 -10 -9 -5 0 -10 7 -10 16 0 8 5 12 10 9 6 -3 10 -10 10 -16z
m-3330 -89 c0 -33 -19 -40 -40 -15 -16 20 -5 45 20 45 16 0 20 -7 20 -30z
m550 -20 c0 -5 -19 -19 -42 -30 -48 -23 -48 -23 -48 -10 0 6 7 10 15 10 8 0
15 7 15 15 0 9 10 19 23 24 23 9 37 6 37 -9z m2962 -72 c26 -12 49 -31 52 -41
6 -23 -39 -87 -61 -87 -11 0 -13 -5 -8 -17 4 -10 8 -53 9 -95 1 -43 5 -81 9
-85 5 -4 17 -2 27 5 11 7 38 18 61 26 47 16 55 9 46 -47 -3 -25 2 -40 25 -69
16 -20 38 -40 48 -43 11 -4 20 -13 20 -21 0 -21 -34 -17 -55 6 -10 11 -25 20
-34 20 -9 0 -22 9 -29 20 -7 11 -19 20 -28 20 -17 0 -57 27 -105 72 -29 26
-29 28 -26 119 2 56 -2 117 -10 152 -14 58 -12 87 4 87 4 0 29 -10 55 -22z
m273 -498 c11 -17 -5 -32 -21 -19 -7 6 -11 15 -8 20 7 12 21 11 29 -1z m60
-60 c3 -5 -1 -10 -10 -10 -9 0 -13 5 -10 10 3 6 8 10 10 10 2 0 7 -4 10 -10z
m48 -34 c21 -16 22 -36 2 -36 -12 0 -35 28 -35 44 0 10 14 6 33 -8z m47 -66
c0 -5 -4 -10 -10 -10 -5 0 -10 5 -10 10 0 6 5 10 10 10 6 0 10 -4 10 -10z
m-2517 -37 c35 -11 59 -25 63 -35 4 -14 16 -18 49 -18 l44 0 -20 -35 c-12 -19
-18 -42 -15 -50 7 -20 -24 -85 -41 -85 -7 0 -13 -6 -13 -14 0 -17 -88 -28
-107 -13 -9 6 -18 5 -29 -4 -14 -11 -13 -14 3 -23 10 -6 42 -9 71 -7 29 1 52
-1 52 -7 0 -14 -25 -22 -73 -22 -23 -1 -53 -7 -67 -15 -14 -8 -36 -14 -51 -15
-33 0 -111 -49 -173 -108 -30 -30 -50 -42 -53 -34 -5 14 -59 17 -67 3 -7 -10
-85 -36 -138 -45 -24 -5 -47 -2 -65 7 -15 8 -47 18 -70 22 -36 6 -44 4 -50
-11 -4 -10 -2 -19 5 -22 27 -9 9 -22 -31 -22 -24 0 -52 -7 -63 -15 -17 -13
-15 -14 31 -13 101 1 178 -41 214 -118 26 -56 39 -78 49 -82 10 -3 32 72 32
112 0 49 66 84 108 57 17 -11 24 -103 11 -154 -6 -23 -13 -53 -16 -67 -3 -14
-13 -43 -24 -65 -22 -47 -16 -83 14 -87 19 -3 17 -7 -21 -43 -32 -29 -42 -45
-39 -61 7 -39 -12 -146 -35 -191 -18 -36 -20 -48 -10 -63 16 -27 16 -28 -14
-22 -20 4 -25 2 -19 -8 5 -8 2 -18 -6 -24 -15 -12 -42 -77 -34 -84 8 -9 28 12
41 44 9 21 21 34 32 34 10 0 23 5 29 11 21 21 123 -43 123 -77 0 -11 -6 -13
-20 -9 -22 7 -28 -13 -9 -32 9 -9 5 -18 -13 -35 -20 -18 -24 -31 -21 -60 3
-37 -10 -60 -21 -33 -10 26 -26 16 -26 -16 0 -25 4 -30 23 -29 58 5 62 -7 12
-41 -19 -13 -35 -29 -35 -36 0 -7 -9 -17 -19 -23 -13 -6 -17 -17 -14 -30 8
-31 31 -24 77 22 22 23 45 41 50 39 24 -6 158 24 220 50 78 33 130 37 245 20
79 -12 119 -34 100 -57 -7 -8 -7 -14 1 -19 17 -11 11 -24 -14 -31 -13 -3 -26
-15 -29 -26 -3 -11 -15 -22 -26 -25 -12 -3 -21 -10 -21 -15 0 -12 -76 -88 -88
-88 -12 1 -46 33 -65 62 -14 23 -15 31 -5 47 16 26 4 37 -25 23 -12 -6 -43
-20 -70 -31 -26 -11 -50 -27 -53 -35 -4 -11 -14 -14 -30 -10 -34 9 -43 -20
-15 -50 11 -12 21 -30 21 -39 0 -16 28 -37 49 -37 19 0 24 41 5 54 -11 8 -13
15 -6 20 6 3 18 -11 28 -34 16 -36 44 -55 44 -31 0 6 12 6 29 1 15 -4 34 -4
42 1 8 4 19 3 26 -3 7 -6 27 -8 44 -4 27 5 37 1 71 -34 22 -22 49 -40 59 -40
26 0 33 -19 15 -39 -9 -10 -16 -22 -16 -27 0 -5 -19 -20 -41 -34 -38 -24 -69
-67 -69 -98 0 -8 -6 -12 -15 -9 -17 7 -30 -9 -15 -18 5 -3 10 -15 10 -26 0
-31 -24 -17 -31 17 -5 24 -7 26 -14 11 -16 -37 -83 -96 -104 -90 -29 7 -61
-14 -61 -42 0 -27 -14 -33 -75 -31 -36 1 -42 6 -82 61 -23 33 -48 75 -54 94
-16 46 -74 146 -115 196 -37 46 -67 116 -89 210 -8 36 -28 93 -44 125 -17 33
-39 104 -51 157 -11 54 -32 143 -45 198 -13 55 -25 116 -27 135 -3 33 -1 35
31 38 27 3 39 -2 52 -19 25 -34 49 -19 49 31 0 44 -8 48 -45 24 -71 -47 -226
46 -323 194 -22 33 -52 120 -52 149 0 13 -5 32 -11 42 -16 25 -5 59 32 101 28
32 30 33 24 10 -33 -121 3 -286 80 -366 39 -41 65 -55 65 -35 0 5 -7 14 -16
22 -22 18 -56 88 -51 103 8 19 76 7 88 -16 12 -23 3 -58 -17 -58 -39 0 4 -50
74 -86 21 -10 24 1 24 73 l-1 68 19 -25 c17 -23 19 -23 26 -7 5 13 13 17 29
13 15 -4 36 3 61 20 49 33 54 41 54 84 l0 35 -31 -38 c-28 -34 -69 -50 -69
-27 0 17 -21 11 -38 -10 -17 -21 -17 -21 -29 -1 -11 17 -8 23 23 50 19 17 41
31 48 31 8 0 27 7 42 15 16 8 37 15 46 15 10 0 20 10 23 23 6 21 -6 47 -74
167 -14 25 -132 82 -146 70 -21 -18 -63 -107 -56 -119 5 -7 12 -3 21 14 17 32
40 39 86 26 21 -6 41 -8 46 -5 5 4 8 -4 6 -17 -2 -16 2 -24 12 -24 8 0 16 -5
18 -10 4 -11 -68 -33 -87 -27 -7 2 -23 -1 -36 -8 -13 -7 -33 -10 -44 -7 -12 3
-24 1 -27 -4 -9 -15 -20 -10 -32 15 -8 18 -16 22 -36 19 -15 -3 -26 -12 -26
-21 0 -19 -29 -52 -46 -52 -18 0 -11 149 8 161 19 13 22 11 33 -13 18 -39 34
-33 25 8 -7 32 -5 40 13 55 l22 18 -26 1 c-14 0 -57 -20 -95 -45 -56 -36 -70
-41 -73 -28 -2 9 -13 24 -25 34 -11 9 -17 21 -13 25 5 5 17 -2 27 -16 l19 -25
34 18 c49 27 103 96 127 164 17 50 19 70 12 146 -6 69 -4 102 8 150 21 80 36
102 85 126 78 40 102 44 325 57 263 15 403 11 483 -13z m225 -166 c2 -12 -3
-17 -17 -17 -12 0 -21 6 -21 13 0 31 32 34 38 4z m207 -137 c3 -5 -1 -10 -9
-10 -9 0 -16 5 -16 10 0 6 4 10 9 10 6 0 13 -4 16 -10z m-405 -40 c0 -6 -23
-9 -52 -9 l-53 2 40 7 c60 11 65 11 65 0z m131 -26 c14 -7 31 -20 39 -29 8
-10 16 -12 20 -6 3 6 20 14 38 17 25 5 33 3 39 -12 3 -10 2 -19 -4 -21 -5 -2
-18 -9 -27 -16 -15 -11 -14 -18 10 -87 28 -82 33 -180 14 -280 -6 -29 -8 -55
-5 -58 10 -11 48 35 70 83 12 28 28 55 36 61 25 20 102 31 163 25 49 -5 63
-11 79 -33 19 -26 19 -28 3 -53 -9 -14 -28 -30 -42 -35 -13 -5 -24 -15 -24
-22 0 -7 -11 -22 -25 -32 -19 -14 -22 -22 -14 -32 11 -14 4 -34 -12 -34 -6 0
-17 -7 -25 -15 -9 -8 -24 -15 -34 -15 -10 0 -20 -6 -23 -14 -12 -32 -119 -45
-190 -23 l-38 12 30 40 c48 64 36 71 -26 16 -79 -70 -127 -81 -218 -49 -65 24
-128 88 -71 74 22 -5 24 -3 30 56 3 33 6 84 6 113 0 58 15 79 65 91 44 10 55
22 55 61 0 28 4 34 18 31 12 -3 16 -12 15 -32 -2 -28 -2 -28 47 -21 59 8 63
-2 18 -40 -23 -19 -32 -35 -30 -50 3 -19 -4 -25 -32 -35 -20 -6 -36 -15 -36
-19 0 -10 123 -1 135 10 5 5 17 9 26 9 27 0 32 32 18 118 -19 123 -58 180
-167 245 l-47 28 45 -7 c25 -3 57 -12 71 -20z m-353 -67 c-40 -41 -64 -58 -66
-49 -5 18 47 83 79 99 52 27 48 10 -13 -50z m119 55 c17 -11 4 -52 -16 -52 -9
0 -24 -9 -34 -20 -18 -22 -37 -19 -37 5 0 17 50 75 65 75 6 0 15 -4 22 -8z
m432 -177 c0 -56 -3 -84 -9 -80 -6 4 -10 21 -9 38 0 18 -2 53 -6 80 -6 38 -5
47 7 47 12 0 16 -17 17 -85z m-249 65 c0 -11 -20 -16 -92 -24 -37 -4 -48 -2
-48 8 0 16 24 23 93 25 26 0 47 -3 47 -9z m-1340 -10 c0 -5 -2 -10 -4 -10 -3
0 -8 5 -11 10 -3 6 -1 10 4 10 6 0 11 -4 11 -10z m979 -104 c1 -36 44 -145 78
-199 28 -45 26 -57 -5 -24 -43 45 -79 138 -86 217 -4 49 -3 68 3 55 5 -11 10
-33 10 -49z m271 54 c0 -5 -2 -10 -4 -10 -3 0 -8 5 -11 10 -3 6 -1 10 4 10 6
0 11 -4 11 -10z m-640 -10 c0 -5 -5 -10 -11 -10 -5 0 -7 5 -4 10 3 6 8 10 11
10 2 0 4 -4 4 -10z m-522 -19 c3 -8 -1 -12 -9 -9 -7 2 -15 10 -17 17 -3 8 1
12 9 9 7 -2 15 -10 17 -17z m17 -250 c6 -10 -21 -41 -36 -41 -15 0 -10 22 9
36 21 16 20 16 27 5z m345 -63 c23 -17 27 -24 18 -35 -9 -11 -15 -10 -35 8
-21 20 -31 49 -18 49 3 0 19 -10 35 -22z m-175 -17 c3 -5 1 -12 -5 -16 -5 -3
-10 1 -10 9 0 18 6 21 15 7z m-775 -28 c0 -18 -28 -53 -42 -53 -14 0 -9 32 9
52 20 22 33 23 33 1z m2640 -27 c0 -3 -4 -8 -10 -11 -5 -3 -10 -1 -10 4 0 6 5
11 10 11 6 0 10 -2 10 -4z m-690 -67 c30 -6 75 -17 100 -24 25 -7 63 -16 85
-20 22 -4 46 -11 53 -17 17 -14 15 -48 -4 -69 -12 -13 -13 -22 -5 -38 14 -26
14 -31 -2 -31 -8 0 -20 11 -27 25 -15 27 -40 34 -40 10 0 -9 -9 -15 -21 -15
-16 0 -19 -4 -15 -17 4 -9 1 -20 -6 -24 -9 -6 -9 -11 1 -23 7 -9 11 -23 7 -31
-3 -8 0 -26 6 -40 6 -14 9 -28 6 -31 -11 -11 -85 40 -173 119 -196 175 -229
221 -175 239 22 7 146 -1 210 -13z m-1833 -321 c-3 -8 -6 -5 -6 6 -1 11 2 17
5 13 3 -3 4 -12 1 -19z m1314 -138 c6 -16 19 -32 30 -35 27 -9 24 -24 -3 -18
-34 9 -58 33 -58 60 0 32 19 29 31 -7z m123 -76 c4 -9 0 -24 -9 -34 -16 -18
-20 -34 -6 -26 14 9 41 -4 41 -20 0 -19 -24 -18 -40 1 -7 9 -23 15 -34 13 -16
-2 -22 -12 -26 -43 -5 -42 -28 -57 -54 -36 -18 15 -1 65 37 110 15 18 27 37
27 42 0 16 57 10 64 -7z m1431 -3 c7 -12 -12 -24 -25 -16 -11 7 -4 25 10 25 5
0 11 -4 15 -9z m1282 -168 c7 -19 -29 -53 -58 -53 -29 0 -26 48 4 60 33 13 47
12 54 -7z m-2679 -164 c-18 -12 -23 8 -6 28 12 15 13 15 16 -2 2 -10 -2 -21
-10 -26z m2494 -99 c-2 -19 -11 -43 -19 -52 -13 -15 -12 -19 21 -40 21 -14 36
-31 36 -43 0 -11 9 -33 20 -50 28 -42 26 -99 -2 -119 -28 -20 -77 -20 -104 -1
-25 17 -48 115 -38 164 5 26 3 35 -15 47 -27 19 -26 25 4 58 14 15 25 34 25
42 0 16 36 34 60 31 11 -2 14 -12 12 -37z m145 -35 c8 -22 -6 -33 -17 -15 -13
20 -12 30 0 30 6 0 13 -7 17 -15z m-363 -188 c11 -31 -3 -53 -28 -44 -11 4
-16 19 -16 42 0 29 3 36 17 33 10 -2 22 -16 27 -31z m-3910 -33 c14 -15 26
-31 26 -37 0 -6 11 -24 24 -42 15 -19 27 -52 31 -86 6 -46 4 -58 -13 -79 -26
-32 -45 -17 -61 46 -7 25 -25 69 -41 98 -32 57 -36 76 -20 107 14 25 22 24 54
-7z m3857 -34 c11 -6 19 -21 19 -35 0 -14 1 -25 3 -26 1 0 22 -2 47 -5 64 -7
63 -7 102 -66 29 -45 34 -60 30 -96 -5 -46 -16 -56 -72 -67 -31 -5 -40 -2 -81
37 -25 24 -53 59 -64 78 -10 19 -22 42 -27 50 -30 52 -56 115 -51 126 6 17 66
19 94 4z m-4021 -40 c0 -5 -4 -10 -10 -10 -5 0 -10 5 -10 10 0 6 5 10 10 10 6
0 10 -4 10 -10z m958 -224 c4 -32 -30 -76 -60 -76 -21 0 -24 30 -7 79 9 27 16
32 38 29 20 -2 27 -9 29 -32z"/>
<path d="M1805 2396 c-14 -10 -25 -11 -37 -5 -10 5 -19 6 -19 2 -1 -4 -2 -15
-3 -23 0 -9 -12 -15 -28 -15 -34 -1 -44 -11 -51 -52 -8 -40 3 -42 39 -6 29 29
90 73 102 73 4 0 18 9 32 20 23 18 24 20 4 20 -11 0 -29 -6 -39 -14z"/>
<path d="M1407 963 c-12 -12 -7 -43 6 -43 18 0 49 34 40 43 -8 9 -38 9 -46 0z"/>
<path d="M1705 730 c3 -5 10 -10 16 -10 5 0 9 5 9 10 0 6 -7 10 -16 10 -8 0
-12 -4 -9 -10z"/>
<path d="M3105 3781 c-3 -5 -1 -12 5 -16 5 -3 10 1 10 9 0 18 -6 21 -15 7z"/>
<path d="M2767 3673 c-4 -3 -7 -13 -7 -21 0 -12 3 -12 15 -2 8 7 15 16 15 21
0 11 -14 12 -23 2z"/>
<path d="M2855 3649 c-40 -30 -63 -64 -52 -75 11 -12 37 5 37 24 0 23 40 62
63 62 9 0 17 5 17 10 0 18 -24 10 -65 -21z"/>
<path d="M2727 3613 c-4 -3 -7 -11 -7 -17 0 -6 5 -5 12 2 6 6 9 14 7 17 -3 3
-9 2 -12 -2z"/>
<path d="M170 3405 c0 -8 7 -15 15 -15 8 0 15 4 15 9 0 5 -7 11 -15 15 -9 3
-15 0 -15 -9z"/>
<path d="M250 3290 c-12 -16 -18 -30 -13 -31 84 -8 87 -6 68 32 -19 37 -28 36
-55 -1z"/>
<path d="M4588 1574 c-5 -4 -8 -24 -8 -45 0 -31 -4 -38 -26 -43 -16 -4 -30
-19 -39 -41 -17 -38 -45 -51 -75 -35 -16 9 -25 8 -36 0 -12 -11 -10 -17 11
-42 14 -16 25 -40 25 -52 0 -12 5 -27 11 -33 15 -15 2 -33 -24 -33 l-22 0 22
-18 c12 -9 25 -34 28 -55 7 -34 25 -62 25 -38 0 6 12 18 26 27 24 16 27 16 55
0 17 -10 32 -16 35 -13 2 2 3 100 2 216 -2 117 -6 209 -10 205z"/>
<path d="M4534 1544 c-13 -6 -7 -44 7 -44 5 0 9 11 9 25 0 14 -1 25 -2 24 -2
0 -8 -3 -14 -5z"/>
<path d="M4385 1420 c3 -5 8 -10 11 -10 2 0 4 5 4 10 0 6 -5 10 -11 10 -5 0
-7 -4 -4 -10z"/>
<path d="M3838 1125 c-12 -12 6 -55 32 -80 26 -25 28 -26 34 -8 9 29 -20 93
-42 93 -10 0 -21 -2 -24 -5z"/>
<path d="M3970 895 c0 -11 42 -89 55 -102 21 -20 35 -16 35 11 0 16 -15 36
-45 60 -25 21 -45 35 -45 31z"/>
<path d="M2120 132 c0 -4 8 -15 19 -24 10 -8 20 -20 22 -26 7 -19 120 -83 141
-80 16 2 1 16 -63 57 -46 30 -90 61 -97 68 -15 15 -22 16 -22 5z"/>
</g>
</svg>
